<svg xmlns="http://www.w3.org/2000/svg" viewBox="0 0 64 64"><linearGradient id="AKEgCg~QgY30yJE~jikHfa" x1="32" x2="32" y1="9.083" y2="54.676" gradientUnits="userSpaceOnUse" spreadMethod="reflect"><stop offset="0" stop-color="#1a6dff"/><stop offset="1" stop-color="#c822ff"/></linearGradient><path fill="url(#AKEgCg~QgY30yJE~jikHfa)" d="M50,55H14c-2.757,0-5-2.243-5-5V14c0-2.757,2.243-5,5-5h36c2.757,0,5,2.243,5,5v36 C55,52.757,52.757,55,50,55z M14,11c-1.654,0-3,1.346-3,3v36c0,1.654,1.346,3,3,3h36c1.654,0,3-1.346,3-3V14c0-1.654-1.346-3-3-3H14 z"/><linearGradient id="AKEgCg~QgY30yJE~jikHfb" x1="32" x2="32" y1="21" y2="43" gradientUnits="userSpaceOnUse" spreadMethod="reflect"><stop offset="0" stop-color="#6dc7ff"/><stop offset="1" stop-color="#e6abff"/></linearGradient><path fill="url(#AKEgCg~QgY30yJE~jikHfb)" d="M36,21c-3.01,0-5.73,1.21-7.72,3.17C27.7,24.06,27.11,24,26.5,24c-5.24,0-9.5,4.26-9.5,9.5 s4.26,9.5,9.5,9.5c1.66,0,4.5,0,4.5,0s3.23,0,5,0c6.07,0,11-4.93,11-11S42.07,21,36,21z M26.5,41c-4.14,0-7.5-3.36-7.5-7.5 s3.36-7.5,7.5-7.5c1.17,0,2.23,0.34,3.2,0.88c0.52,0.28,1,0.61,1.46,0.98c1,0.78,1.89,1.7,2.69,2.55c0.29,0.3,0.58,0.6,0.86,0.88 c0.39,0.39,0.39,1.03,0,1.42s-1.03,0.39-1.42,0c-0.29-0.29-0.58-0.6-0.89-0.92C30.7,30.01,28.78,28,26.5,28 c-3.03,0-5.5,2.47-5.5,5.5s2.47,5.5,5.5,5.5c0.32,0,0.64-0.03,0.95-0.09c0.54,0.54,1.13,1.08,1.77,1.58 C28.36,40.83,27.44,41,26.5,41z M36,41c-1.44,0-2.7-0.37-3.83-0.96c-1.56-0.81-2.88-2.06-4.13-3.39c-0.35-0.38-0.7-0.76-1.05-1.14 c-0.56-0.61-1.12-1.23-1.7-1.8c-0.39-0.39-0.39-1.03,0-1.42c0.39-0.39,1.03-0.39,1.42,0c0.59,0.6,1.17,1.23,1.75,1.87 C30.74,36.65,32.89,39,36,39c3.86,0,7-3.14,7-7s-3.14-7-7-7c-1.37,0-2.68,0.39-3.8,1.13c-0.56-0.43-1.17-0.83-1.82-1.16 C31.97,23.7,33.94,23,36,23c4.96,0,9,4.04,9,9S40.96,41,36,41z"/></svg>